<svg width="128" height="128" xmlns="http://www.w3.org/2000/svg">

 <g>
  <title>background</title>
  <rect fill="none" id="canvas_background" height="402" width="582" y="-1" x="-1"/>
 </g>
 <g>
  <title>Layer 1</title>
  <path id="svg_3" opacity="0.1" fill="#060808" d="m87.3,119l-67.7,0c0,0 -3.9,2.6 -3.8,2.6c0,0 -0.1,0 0,0.1c0.4,0.4 2.2,2.3 5.8,2.3l70.3,0c-1.8,-1.4 -3.3,-3.1 -4.6,-5z"/>
  <path id="svg_5" fill="#218df3" d="m79,25.5l-30,0c-0.8,0 -1.5,-0.7 -1.5,-1.5s0.7,-1.5 1.5,-1.5l30,0c0.8,0 1.5,0.7 1.5,1.5s-0.7,1.5 -1.5,1.5z"/>
  <path id="svg_7" fill="#218df3" d="m89,35.5l-50,0c-0.8,0 -1.5,-0.7 -1.5,-1.5s0.7,-1.5 1.5,-1.5l50,0c0.8,0 1.5,0.7 1.5,1.5s-0.7,1.5 -1.5,1.5z"/>
  <path id="svg_9" fill="#218df3" d="m89,45.5l-50,0c-0.8,0 -1.5,-0.7 -1.5,-1.5s0.7,-1.5 1.5,-1.5l50,0c0.8,0 1.5,0.7 1.5,1.5s-0.7,1.5 -1.5,1.5z"/>
  <path id="svg_11" fill="#218df3" d="m89,55.5l-50,0c-0.8,0 -1.5,-0.7 -1.5,-1.5s0.7,-1.5 1.5,-1.5l50,0c0.8,0 1.5,0.7 1.5,1.5s-0.7,1.5 -1.5,1.5z"/>
  <path id="svg_13" fill="#288df3" d="m24.335705,122.321432l-2.2,0c-0.3,0 -0.6,0 -0.9,-0.1c-0.1,0 -0.2,0 -0.2,0c-0.2,0 -0.4,-0.1 -0.6,-0.1c-0.1,0 -0.2,0 -0.2,-0.1c-0.3,-0.1 -0.5,-0.2 -0.8,-0.3c0,0 0,0 0,0c-0.2,-0.1 -0.5,-0.2 -0.7,-0.4c0,0 0,0 -0.1,0l41.3,-37.8c1.3,-1.2 3,-1.8 4.7,-1.8s3.4,0.7 4.7,1.8l16.2,14.9c0.4,-1 0.8,-1.9 1.3,-2.9l-10.8,-9.9l37.9,-34.8l0,34.2c1,0.4 2,0.8 3,1.3l0,-38.9c0,-0.2 0,-0.3 -0.1,-0.5c0,0 0,-0.1 0,-0.1c-0.1,-0.2 -0.2,-0.3 -0.3,-0.4c0,0 0,0 0,0c0,0 0,0 0,0c0,0 0,0 -0.1,-0.1l-5.4,-5l0,-27.5c0,-6.3 -5.2,-11.5 -11.5,-11.5l-70,0c-6.3,0 -11.5,5.2 -11.5,11.5l0,27.6l-5.4,5c0,0 0,0 -0.1,0.1c0,0 0,0 0,0c0,0 0,0 0,0c-0.1,0.1 -0.2,0.3 -0.3,0.4c0,0 0,0 0,0.1c0,0.1 -0.1,0.3 -0.1,0.5l0,67.9c0,2.8 1.2,5.3 3,7.1c0,0 0,0 0,0c0.1,0.1 0.2,0.1 0.2,0.2c0.1,0.1 0.3,0.3 0.4,0.4c0.1,0.1 0.2,0.2 0.4,0.3c0.1,0.1 0.3,0.2 0.4,0.3c0.1,0.1 0.3,0.2 0.4,0.3c0.1,0.1 0.2,0.1 0.4,0.2c0.2,0.1 0.3,0.2 0.5,0.2c0.1,0.1 0.2,0.1 0.4,0.2c0.2,0.1 0.4,0.1 0.5,0.2c0.1,0 0.2,0.1 0.4,0.1c0.2,0.1 0.4,0.1 0.6,0.1c0.1,0 0.2,0.1 0.4,0.1c0.2,0 0.4,0.1 0.6,0.1c0.1,0 0.2,0 0.3,0c0.3,0 0.7,0.1 1,0.1l72.5,0c-1.4,-0.9 -2.6,-1.9 -3.8,-3l-66.4,0zm86.7,-76.9l2.2,2l-2.2,2l0,-4zm-90,-31.6c0,-4.7 3.8,-8.5 8.5,-8.5l70,0c4.7,0 8.5,3.8 8.5,8.5l0,38.4l-34.2,31.4l-2.5,-2.3c-1.8,-1.7 -4.2,-2.6 -6.7,-2.6s-4.9,0.9 -6.7,2.6l-2.5,2.3l-34.4,-31.4l0,-38.4zm-3,31.6l0,4l-2.2,-2l2.2,-2zm-1.7,73.9c-0.8,-1.1 -1.2,-2.5 -1.2,-3.9l0,-64.6l37.9,34.8l-36.7,33.7z"/>
  <path id="svg_18" fill="#2196f3" d="m106,87.5c-10.5,0 -19,8.5 -19,19s8.5,19 19,19s19,-8.5 19,-19s-8.5,-19 -19,-19zm0,35c-8.8,0 -16,-7.2 -16,-16s7.2,-16 16,-16s16,7.2 16,16s-7.2,16 -16,16z"/>
  <path id="svg_19" fill="#2196f3" d="m107.1,98.9c0,0 0,0 0,0c-0.2,-0.1 -0.3,-0.2 -0.4,-0.3c0,0 -0.1,0 -0.1,-0.1c0,0 0,0 0,0c-0.2,-0.1 -0.3,-0.1 -0.5,-0.1c0,0 -0.1,0 -0.1,0c-0.1,0 -0.3,0 -0.4,0.1c-0.1,0 -0.1,0 -0.2,0.1c-0.1,0.1 -0.2,0.1 -0.3,0.2c0,0 -0.1,0 -0.1,0.1c0,0 0,0 0,0c0,0 0,0 -0.1,0l-6,6.5c-0.6,0.6 -0.5,1.6 0.1,2.1c0.6,0.6 1.6,0.5 2.1,-0.1l3.4,-3.7l0,9.2c0,0.8 0.7,1.5 1.5,1.5s1.5,-0.7 1.5,-1.5l0,-9.2l3.4,3.7c0.3,0.3 0.7,0.5 1.1,0.5c0.4,0 0.7,-0.1 1,-0.4c0.6,-0.6 0.7,-1.5 0.1,-2.1l-6,-6.5z"/>
 </g>
</svg>